<svg width="42" height="42" viewBox="0 0 42 42" fill="none" xmlns="http://www.w3.org/2000/svg">
<path d="M20.5951 41.1955C16.5218 41.1955 12.5399 39.9876 9.1531 37.7246C5.76625 35.4616 3.12652 32.2451 1.56772 28.4818C0.00892541 24.7185 -0.398929 20.5775 0.395738 16.5825C1.19041 12.5874 3.1519 8.91771 6.03218 6.03743C8.91246 3.15715 12.5822 1.19566 16.5772 0.400988C20.5723 -0.39368 24.7133 0.0141725 28.4765 1.57297C32.2398 3.13176 35.4563 5.77149 37.7194 9.15835C39.9824 12.5452 41.1903 16.5271 41.1903 20.6004C41.1835 26.0605 39.0115 31.295 35.1506 35.1558C31.2897 39.0167 26.0552 41.1887 20.5951 41.1955ZM20.5951 2.22304C16.9604 2.22304 13.4074 3.30085 10.3852 5.32018C7.36309 7.33951 5.00762 10.2097 3.61668 13.5677C2.22574 16.9257 1.86181 20.6208 2.5709 24.1856C3.28 27.7505 5.03027 31.025 7.60039 33.5951C10.1705 36.1652 13.445 37.9155 17.0099 38.6246C20.5747 39.3337 24.2698 38.9698 27.6278 37.5788C30.9859 36.1879 33.856 33.8324 35.8753 30.8103C37.8947 27.7881 38.9725 24.2351 38.9725 20.6004C38.9684 15.7277 37.0309 11.0557 33.5854 7.61013C30.1398 4.16459 25.4679 2.22711 20.5951 2.22304Z" fill="url(#paint0_linear_3_125)"/>
<path d="M32.2423 22.1677V29.8505C32.2429 29.896 32.2346 29.9412 32.2176 29.9834C32.2007 30.0256 32.1755 30.0641 32.1436 30.0965C32.1117 30.1289 32.0736 30.1546 32.0316 30.1722C31.9896 30.1898 31.9446 30.1988 31.8991 30.1988H27.9296C27.8841 30.1988 27.8391 30.1898 27.7971 30.1722C27.7551 30.1546 27.7171 30.1289 27.6851 30.0965C27.6532 30.0641 27.628 30.0256 27.6111 29.9834C27.5942 29.9412 27.5858 29.896 27.5865 29.8505V22.6799C27.5865 20.8001 26.9104 19.5145 25.2253 19.5145C24.7012 19.5197 24.1914 19.6855 23.7646 19.9896C23.3378 20.2937 23.0145 20.7214 22.8385 21.215C22.7192 21.5817 22.6671 21.9669 22.6848 22.3521V29.83C22.6835 29.922 22.6464 30.0098 22.5813 30.0748C22.5163 30.1399 22.4285 30.177 22.3365 30.1783H18.3722C18.3263 30.179 18.2807 30.1705 18.2381 30.1532C18.1955 30.1359 18.1568 30.1103 18.1244 30.0778C18.0919 30.0454 18.0663 30.0067 18.049 29.9641C18.0317 29.9216 18.0232 29.876 18.0239 29.83C18.0239 27.9298 18.0751 18.6848 18.0239 16.5131C18.0232 16.4676 18.0316 16.4224 18.0485 16.3802C18.0655 16.338 18.0906 16.2995 18.1226 16.2671C18.1545 16.2347 18.1926 16.209 18.2345 16.1914C18.2765 16.1739 18.3216 16.1648 18.3671 16.1648H22.3263C22.3722 16.1641 22.4178 16.1727 22.4604 16.1899C22.503 16.2072 22.5416 16.2328 22.5741 16.2653C22.6066 16.2978 22.6322 16.3364 22.6495 16.379C22.6667 16.4216 22.6753 16.4672 22.6746 16.5131V18.1521C22.6626 18.1662 22.6523 18.1817 22.6438 18.1982H22.6746V18.1521C23.1013 17.4258 23.7188 16.8303 24.4602 16.4302C25.2015 16.0302 26.0383 15.841 26.8796 15.8831C29.9528 15.8831 32.2423 17.8858 32.2423 22.1882V22.1677ZM11.135 30.2244H15.1044C15.1499 30.2244 15.195 30.2154 15.2369 30.1978C15.2789 30.1802 15.317 30.1545 15.3489 30.1221C15.3808 30.0897 15.406 30.0512 15.4229 30.009C15.4399 29.9668 15.4483 29.9216 15.4476 29.8761V16.5592C15.4483 16.5137 15.4399 16.4685 15.4229 16.4263C15.406 16.3841 15.3808 16.3456 15.3489 16.3132C15.317 16.2808 15.2789 16.2551 15.2369 16.2375C15.195 16.22 15.1499 16.2109 15.1044 16.2109H11.135C11.0895 16.2109 11.0444 16.22 11.0024 16.2375C10.9605 16.2551 10.9224 16.2808 10.8905 16.3132C10.8585 16.3456 10.8334 16.3841 10.8164 16.4263C10.7995 16.4685 10.7911 16.5137 10.7918 16.5592V29.8761C10.7911 29.9216 10.7995 29.9668 10.8164 30.009C10.8334 30.0512 10.8585 30.0897 10.8905 30.1221C10.9224 30.1545 10.9605 30.1802 11.0024 30.1978C11.0444 30.2154 11.0895 30.2244 11.135 30.2244Z" fill="url(#paint1_linear_3_125)"/>
<path d="M12.9789 14.4131C14.3565 14.4131 15.4732 13.2964 15.4732 11.9188C15.4732 10.5412 14.3565 9.4244 12.9789 9.4244C11.6013 9.4244 10.4845 10.5412 10.4845 11.9188C10.4845 13.2964 11.6013 14.4131 12.9789 14.4131Z" fill="url(#paint2_linear_3_125)"/>
<defs>
<linearGradient id="paint0_linear_3_125" x1="-39.751" y1="6.45884" x2="163.148" y2="53.9951" gradientUnits="userSpaceOnUse">
<stop stop-color="#FF9B14"/>
<stop offset="1" stop-color="#22C7CF"/>
</linearGradient>
<linearGradient id="paint1_linear_3_125" x1="-40.3554" y1="9.04027" x2="162.543" y2="56.5765" gradientUnits="userSpaceOnUse">
<stop stop-color="#FF9B14"/>
<stop offset="1" stop-color="#22C7CF"/>
</linearGradient>
<linearGradient id="paint2_linear_3_125" x1="-38.2145" y1="-0.0767056" x2="164.679" y2="47.4596" gradientUnits="userSpaceOnUse">
<stop stop-color="#FF9B14"/>
<stop offset="1" stop-color="#22C7CF"/>
</linearGradient>
</defs>
</svg>
