<svg width="42" height="42" viewBox="0 0 42 42" fill="none" xmlns="http://www.w3.org/2000/svg">
<path d="M20.6361 41.262C16.5552 41.263 12.5658 40.0537 9.17222 37.7872C5.77869 35.5206 3.13357 32.2985 1.57143 28.5285C0.00928431 24.7585 -0.39971 20.6098 0.396178 16.6073C1.19207 12.6048 3.15708 8.92828 6.04268 6.04268C8.92828 3.15708 12.6048 1.19207 16.6073 0.396178C20.6098 -0.39971 24.7585 0.00928431 28.5285 1.57143C32.2985 3.13357 35.5206 5.77869 37.7872 9.17222C40.0537 12.5658 41.263 16.5552 41.262 20.6361C41.2552 26.1043 39.0799 31.3467 35.2133 35.2133C31.3467 39.0799 26.1043 41.2552 20.6361 41.262ZM20.6361 2.22291C16.9893 2.22291 13.4243 3.30433 10.3921 5.33041C7.35981 7.35649 4.99646 10.2362 3.60087 13.6055C2.20528 16.9747 1.84013 20.6822 2.5516 24.2589C3.26306 27.8357 5.01919 31.1212 7.5979 33.6999C10.1766 36.2786 13.4621 38.0348 17.0389 38.7462C20.6157 39.4577 24.3231 39.0925 27.6923 37.697C31.0616 36.3014 33.9413 33.938 35.9674 30.9058C37.9935 27.8735 39.0749 24.3086 39.0749 20.6617C39.0749 15.7714 37.1323 11.0815 33.6743 7.62351C30.2164 4.16556 25.5264 2.22291 20.6361 2.22291Z" fill="url(#paint0_linear_3_122)"/>
<path fill-rule="evenodd" clip-rule="evenodd" d="M17.4197 20.7335V32.688C17.4197 32.7709 17.4526 32.8504 17.5112 32.9089C17.5698 32.9675 17.6493 33.0005 17.7322 33.0005H22.1728C22.2557 33.0005 22.3352 32.9675 22.3938 32.9089C22.4524 32.8504 22.4853 32.7709 22.4853 32.688V20.5389H25.7018C25.7804 20.5392 25.8562 20.5098 25.9142 20.4566C25.9721 20.4035 26.0078 20.3304 26.0143 20.2521L26.3216 16.5899C26.3251 16.5472 26.3198 16.5042 26.306 16.4637C26.2922 16.4231 26.2702 16.3858 26.2414 16.3541C26.2125 16.3224 26.1775 16.297 26.1384 16.2794C26.0994 16.2618 26.0571 16.2524 26.0143 16.2519H22.4648V13.6551C22.4648 13.363 22.5808 13.0829 22.7873 12.8764C22.9938 12.6699 23.2739 12.5539 23.566 12.5539H26.045C26.1278 12.5539 26.2073 12.5209 26.2659 12.4624C26.3245 12.4038 26.3574 12.3243 26.3574 12.2414V8.57928C26.3574 8.53849 26.3493 8.4981 26.3335 8.46048C26.3178 8.42286 26.2947 8.38875 26.2656 8.36014C26.2365 8.33154 26.202 8.30901 26.1642 8.29387C26.1263 8.27873 26.0858 8.27129 26.045 8.27197H21.8553C20.6775 8.27603 19.5493 8.74676 18.7179 9.58103C17.8865 10.4153 17.4197 11.5451 17.4197 12.7229V16.2519H15.1815C15.0986 16.2519 15.0191 16.2848 14.9605 16.3434C14.9019 16.402 14.869 16.4814 14.869 16.5643V20.2265C14.869 20.3093 14.9019 20.3888 14.9605 20.4474C15.0191 20.506 15.0986 20.5389 15.1815 20.5389H17.4197V20.7335Z" fill="url(#paint1_linear_3_122)"/>
<defs>
<linearGradient id="paint0_linear_3_122" x1="14.0442" y1="19.0893" x2="216.938" y2="66.6256" gradientUnits="userSpaceOnUse">
<stop stop-color="#FF9B14"/>
<stop offset="1" stop-color="#22C7CF"/>
</linearGradient>
<linearGradient id="paint1_linear_3_122" x1="14.1059" y1="18.8128" x2="217.004" y2="66.3491" gradientUnits="userSpaceOnUse">
<stop stop-color="#FF9B14"/>
<stop offset="1" stop-color="#22C7CF"/>
</linearGradient>
</defs>
</svg>
