<svg width="42" height="42" viewBox="0 0 42 42" fill="none" xmlns="http://www.w3.org/2000/svg">
<path d="M20.5695 41.1955C16.4973 41.1904 12.5179 39.9782 9.13447 37.7121C5.75099 35.446 3.11525 32.2278 1.56038 28.4641C0.00551058 24.7003 -0.398691 20.5602 0.398866 16.5668C1.19642 12.5734 3.15993 8.9061 6.04123 6.02838C8.92253 3.15067 12.5923 1.19171 16.5866 0.399118C20.581 -0.393476 24.7207 0.0158694 28.4825 1.57542C32.2442 3.13496 35.4592 5.7747 37.7211 9.16099C39.983 12.5473 41.1903 16.5281 41.1903 20.6004C41.1835 26.0649 39.0079 31.3033 35.1415 35.1649C31.2751 39.0265 26.034 41.1955 20.5695 41.1955ZM20.5695 2.22302C16.9348 2.22302 13.3818 3.30083 10.3596 5.32016C7.33747 7.33949 4.98201 10.2096 3.59107 13.5677C2.20013 16.9257 1.8362 20.6208 2.54529 24.1856C3.25438 27.7505 5.00465 31.025 7.57477 33.5951C10.1449 36.1652 13.4194 37.9155 16.9843 38.6246C20.5491 39.3337 24.2442 38.9698 27.6022 37.5788C30.9602 36.1879 33.8304 33.8324 35.8497 30.8103C37.869 27.7881 38.9469 24.2351 38.9469 20.6004C38.9414 15.7281 37.0035 11.0569 33.5583 7.61161C30.113 4.16636 25.4418 2.22844 20.5695 2.22302Z" fill="url(#paint0_linear_1_12)"/>
<path d="M25.5634 14.6026C25.3425 14.6026 25.1267 14.6681 24.9431 14.7908C24.7594 14.9135 24.6163 15.0879 24.5318 15.2919C24.4473 15.4959 24.4252 15.7205 24.4683 15.937C24.5114 16.1536 24.6177 16.3526 24.7739 16.5087C24.93 16.6649 25.129 16.7712 25.3456 16.8143C25.5621 16.8574 25.7867 16.8353 25.9907 16.7508C26.1947 16.6663 26.3691 16.5232 26.4918 16.3395C26.6145 16.1559 26.68 15.9401 26.68 15.7192C26.68 15.5726 26.6511 15.4274 26.595 15.2919C26.5389 15.1565 26.4566 15.0334 26.3529 14.9297C26.2492 14.826 26.1261 14.7437 25.9907 14.6876C25.8552 14.6315 25.71 14.6026 25.5634 14.6026ZM20.6003 16.0317C19.6732 16.0357 18.7682 16.3143 17.9993 16.8323C17.2305 17.3503 16.6323 18.0844 16.2804 18.942C15.9284 19.7997 15.8384 20.7424 16.0218 21.6511C16.2051 22.5598 16.6536 23.3939 17.3105 24.048C17.9674 24.7021 18.8034 25.1469 19.713 25.3262C20.6225 25.5056 21.5648 25.4115 22.4209 25.0558C23.277 24.7001 24.0085 24.0988 24.5231 23.3277C25.0377 22.5566 25.3124 21.6503 25.3124 20.7233C25.3117 20.1056 25.1892 19.4942 24.952 18.9239C24.7147 18.3537 24.3672 17.8358 23.9295 17.4001C23.4918 16.9643 22.9725 16.6191 22.4012 16.3843C21.8299 16.1495 21.2179 16.0296 20.6003 16.0317ZM20.6003 23.7145C20.0054 23.7145 19.4239 23.538 18.9294 23.2074C18.4349 22.8768 18.0495 22.407 17.8221 21.8573C17.5947 21.3076 17.5354 20.7029 17.6519 20.1195C17.7683 19.5361 18.0552 19.0004 18.4761 18.5802C18.8971 18.1599 19.4333 17.874 20.0169 17.7585C20.6004 17.6431 21.2051 17.7034 21.7544 17.9317C22.3037 18.1601 22.7729 18.5462 23.1026 19.0413C23.4324 19.5364 23.6078 20.1182 23.6068 20.7131C23.6075 21.1083 23.5302 21.4998 23.3794 21.8652C23.2286 22.2306 23.0073 22.5626 22.728 22.8423C22.4488 23.122 22.1171 23.344 21.752 23.4954C21.3869 23.6468 20.9955 23.7247 20.6003 23.7247V23.7145ZM30.0655 16.8153C30.0655 15.298 29.4628 13.8428 28.3898 12.7698C27.3169 11.6969 25.8617 11.0941 24.3444 11.0941H16.7947C16.0425 11.0941 15.2977 11.2425 14.603 11.5306C13.9082 11.8188 13.277 12.2411 12.7456 12.7735C12.2142 13.3058 11.793 13.9377 11.5061 14.633C11.2192 15.3283 11.0722 16.0734 11.0736 16.8255V24.3752C11.0736 25.1265 11.2215 25.8705 11.5091 26.5646C11.7966 27.2587 12.218 27.8894 12.7492 28.4207C13.2805 28.9519 13.9112 29.3734 14.6053 29.6609C15.2994 29.9484 16.0434 30.0964 16.7947 30.0964H24.3444C25.0957 30.0964 25.8396 29.9484 26.5338 29.6609C27.2279 29.3734 27.8586 28.9519 28.3898 28.4207C28.9211 27.8894 29.3425 27.2587 29.63 26.5646C29.9176 25.8705 30.0655 25.1265 30.0655 24.3752V16.8153ZM28.2729 24.365C28.2729 25.4069 27.859 26.4061 27.1222 27.1428C26.3855 27.8796 25.3863 28.2935 24.3444 28.2935H16.7947C15.7532 28.2921 14.7548 27.8778 14.0183 27.1413C13.2819 26.4049 12.8676 25.4065 12.8662 24.365V16.8255C12.8662 15.7836 13.2801 14.7844 14.0168 14.0477C14.7536 13.3109 15.7528 12.8971 16.7947 12.8971H24.3444C24.8605 12.8964 25.3716 12.9975 25.8485 13.1947C26.3255 13.3919 26.7588 13.6812 27.1237 14.0462C27.4887 14.4111 27.778 14.8444 27.9752 15.3214C28.1724 15.7983 28.2735 16.3095 28.2729 16.8255V24.365Z" fill="url(#paint1_linear_1_12)"/>
<defs>
<linearGradient id="paint0_linear_1_12" x1="-93.5411" y1="-6.13591" x2="109.352" y2="41.4004" gradientUnits="userSpaceOnUse">
<stop stop-color="#FF9B14"/>
<stop offset="1" stop-color="#22C7CF"/>
</linearGradient>
<linearGradient id="paint1_linear_1_12" x1="-93.5411" y1="-6.1359" x2="109.352" y2="41.4004" gradientUnits="userSpaceOnUse">
<stop stop-color="#FF9B14"/>
<stop offset="1" stop-color="#22C7CF"/>
</linearGradient>
</defs>
</svg>
