<svg width="42" height="42" viewBox="0 0 42 42" fill="none" xmlns="http://www.w3.org/2000/svg">
<path d="M22.6285 19.2072L29.456 11.8368H27.1972L21.6195 17.8601L17.1122 11.8368H11.0837L18.3056 21.4608L10.9659 29.3639H13.2247L19.2941 22.813L24.1958 29.3639H30.2242L22.6285 19.2072ZM16.2568 13.4963L26.8848 27.7044H25.005L14.4027 13.4963H16.2568Z" fill="url(#paint0_linear_3_132)"/>
<path d="M20.5951 41.1955C16.5218 41.1955 12.5399 39.9876 9.1531 37.7246C5.76625 35.4616 3.12651 32.2451 1.56772 28.4818C0.00892248 24.7185 -0.398928 20.5775 0.395739 16.5825C1.19041 12.5874 3.1519 8.91771 6.03218 6.03743C8.91246 3.15715 12.5822 1.19566 16.5772 0.400988C20.5723 -0.39368 24.7133 0.0141725 28.4765 1.57297C32.2398 3.13176 35.4563 5.77149 37.7193 9.15835C39.9824 12.5452 41.1903 16.5271 41.1903 20.6004C41.1835 26.0605 39.0115 31.295 35.1506 35.1558C31.2897 39.0167 26.0552 41.1887 20.5951 41.1955ZM20.5951 2.22304C16.9604 2.22304 13.4074 3.30085 10.3852 5.32018C7.36308 7.33951 5.00762 10.2097 3.61668 13.5677C2.22574 16.9257 1.86181 20.6208 2.5709 24.1856C3.28 27.7505 5.03027 31.025 7.60038 33.5951C10.1705 36.1652 13.445 37.9155 17.0099 38.6246C20.5747 39.3337 24.2698 38.9698 27.6278 37.5788C30.9859 36.1879 33.856 33.8324 35.8753 30.8103C37.8947 27.7881 38.9725 24.2351 38.9725 20.6004C38.9671 15.7281 37.0291 11.0569 33.5839 7.61163C30.1386 4.16638 25.4674 2.22846 20.5951 2.22304Z" fill="url(#paint1_linear_3_132)"/>
<defs>
<linearGradient id="paint0_linear_3_132" x1="-147.3" y1="-18.6436" x2="55.5981" y2="28.8875" gradientUnits="userSpaceOnUse">
<stop stop-color="#FF9B14"/>
<stop offset="1" stop-color="#22C7CF"/>
</linearGradient>
<linearGradient id="paint1_linear_3_132" x1="-147.28" y1="-18.7306" x2="55.6135" y2="28.8056" gradientUnits="userSpaceOnUse">
<stop stop-color="#FF9B14"/>
<stop offset="1" stop-color="#22C7CF"/>
</linearGradient>
</defs>
</svg>
